<svg width="640" height="480" xmlns="http://www.w3.org/2000/svg"><title>Black and white globe</title><title>Layer 1</title><switch><g stroke-miterlimit="10"><path stroke="#fff" fill="#0076b3" d="M531.658 234.155c0 120.123-97.377 217.5-217.503 217.5-120.124 0-217.5-97.377-217.5-217.5 0-120.127 97.376-217.508 217.5-217.508 120.126 0 217.503 97.38 217.503 217.508z"/><path stroke-width="5" stroke="#fff" fill="#fff" d="M532.098 234.095c0 120.4-97.6 218-218.002 218-120.398 0-218-97.6-218-218 0-120.397 97.602-218 218-218 120.4 0 218.002 97.602 218.002 218zm-175.24-154.5l1.642-.1.877-.483 1.926.625.447-1.03-2.11-1.336-1.003.88-1.154.48-1.465.27-1.814.18.332-1.424-1.146-.92-1.826-.612-1.104.025-.03.98-.448.81 1.084.93-.146 1.35 1.238.11-.367.74 1.36.555-.6.718.21 1.4.075.05 1.496.232 2.385.09 1.838-.497.026-1.048.992.942 1.68.092 1.798-.4 1.894-.84-1.862-.46-1.887-.68-2.01-.7-1.452-.183-.862-.734zm80.365 34.953l1.373.22.11-.95-.993-.624-.736.362.246.992m-.49-2.41l1.587.577.293-.772-.404-1.152-.62.08-.68-1-1.28-.4.56 1.337.533 1.34zm2.703 1.588l.82-.085-.207-.93-.48-.65-.34.627.2 1.048m-8.31-14.662l1.32.313-.7-.994-1.346-.545-.798-.894.58 1.27.94.85zm46.98 62.546l.49-.775.76-.153-.74-1.66-.9.403.39 2.18m52.42 80.573l.124-.452-.01-1.35-.14.21.026 1.595M317.853 451.96l-.23-.008.484-.02-.883-.006-1.17.037-.69.02M292.63 229.48l1.68.77 1.265.767.584-1.558-1.56.21-1.97-.19m24.21 222.162l-.5.1-.01.06-.466.093 1.6-.013.724-.062-.455-.033.975-.08-.226-.057-1.636-.007zm46.143-96.73l2.12-.362.87-.93-.086-1.564-2.428.67.636.177.064 1.28-1.18.73zm-27.168-4.23l1.243.804m-51.51-33.104l.39.633-.38.42.765.214 1.177-.238-.47-1.06-.736-.64-.743.668m76.21 16.418l.36 1.05.548-.932.89-.146-.67-.73-.22.876-.91-.12zm2.69 4.286l1.3.926m-47.01-17.28l1.777-.038.59-1.44-.595.882-1.177-.287-.596.882m-14.278-19.82l-.425-.74-1.024-.043-1.613.545-1-.77m5.724 2.862l.716-1.787-1.57-1.493m4.82 8.025l.01-1.643-2.047-1.36m3.63 3.02l1.274 1.79m-.005 1.78l1.65 2.836m2.215 2.34l1.3-1.32-1.766-.896m4.23 1.38l1.416.28m4.494 2.154l-2.24-.717-1.29.853m-32.536-11.03l1.81-.286m18.653-37.403l1.31-.63.505-1.23m4.196-18.925l1.93-.374 1.9-.35 1.9-1.01-.967-.613-1.416.686-1.436.346-1.69.37-.22.947M303.44 190.8l1.246-.227-1.508 1.448 1.238.077.76-.9-.098 1.57.656-2.14-.466-.956-1.827 1.135zM298 202.635l1.263.748 1.49.717-.447-1.582-.927-.41-1.38.528zm10.157-74.118l-.47 1.073.2 1.496 1.44.595 1.15-.45 1.76.427.21-1.006-.32-1.39-1.126-.7-1.492-.23-1.348.19m-7.114-21.634l.394 1.015-.03 1.277-.755.976-.294 1.42.57 1.32 2.068.41 1.195-.97.98-1.36 1.128-.645.27-1.17-1.075-.544.66-1.23-.31-.847-1.304-.484-.336-1.03.104-1.417-.87-.196-.64 1.3-1.17.85-.574 1.32zm-2.91-.51l.906.783-.086-1.436-.82.65m-1.582 7.1l1.13.985 1.42.752.915-.524.122-.742-1.862-.543-1.722.076m-6.32-2.208l-.68 1.494.795.686.21-1.184.47-.962-.794-.037m-4.04 7.673l1.016.37.043-1.23-1.06.863m-.008-11.837l1.182.454.337.677.965.374.803-.29-.718-1.103-1.543-.514-1.03.405m-1.85.235l-.116.81.59.15.674-.925-1.147-.03m.787 1.133l-.553.987.79.778 1.608-.134 1.073-1.17-.717-.327-1.08.015-1.12-.147zm-9.215 3.163l.422.725.976-.5 1.18-.825-1.366.06-1.215.545M205.37 64.01l-2.47 1.42m-10.48 9.53l-.848.768-.123.558.9-.895.063-.43m-10.54 16.12l.453.165.63-.847-1.085.68zm-.33 1.784l-.045.863.694-.895-.65.03zm.28 2.89l.073.7.68-.065m-.35 7.67l1.147.74.448.29.76-.37-.18-.687-2.173.024zm1.56 1.56l.452.815.575.62.92-.46.052-1.19-1.018.503-.988-.286zm34.07-18.286l-1.154.307.124 1.117-1.3 1.454.72.95.435-1.292.95-1.048.227-1.486zm-12.34 9.24l-.865 1.11-.33 1.003.545.688.82-.33.28-.883-.232-.79-.22-.795zm-7.744 22.073l-1.287 2.024 1.046.473 1.18-.148.9.848.92-.993.073-.87 1.19.802.6-1.06-1.39-.394-1.31-.32-1.92-.36zm181.72-10.107l-.63-1.448M359.712 106l1.22.852.345-.632-1.563-.22zm138.748 10.97l-.55-.854-.326-.46-.238-.275.11.29.31.627-.403-.447-.527-.62-.336-.25-.11.066-.374-.226m-22.59-30.22l.496.55-1.305-1.397-1.115-1.158-1.422-1.446-.21-.25-.22-.244-1.055-1.07M394.018 31.42l-.47-.324-.118-.153-1.434-.356-.277.006-1.56-.58-1.31-.437-2.11-.783-1.706-.71-1.365-.457-1.246-.54-1.87-.634-1.58-.436 1.177.405 1.19.365 1.055.41 1.278.435 1.04.424 1.614.65 2.004.76 1.02.453 1.77.6 1.482.528 1.41.38m-179.83 8.83l-.467.213-.55.44-1.38.776-.815.595-.63.5 1.07-.69.42-.135.815-.404.166.16.82-.654 1.2-.656 1.54-.796 1.786-.84 1.117-.496 1.42-.558 1.415-.597.496-.387-1.342.472-.497.08-.33.033.342-.27-.694.248-5.89 2.97zm-2.455 1.88l-.25.282-.27.306m-1.367.908l-.57.578-.72.705-.504.645.5-.53.95-.57.385-.476-.04-.35zm-2.75 2.72l-.47.396-.28.637.6-.575.155-.456zm-1.86 2.42l-.055.394m1.685 2.636l-.61.11-.574.8.3.205.576-.098-.126-.41.433-.608zm40.052-19.47l-1.03.204-.21.545 1.35-.43-.106-.32zm-29.97 27.42l.054 1.22.87-.26.11-.655-1.034-.306zm19.07-23.717l-1.21.02-.606-.19-.894-.025-1.215.323-.906.087-.74-.06-1.032.115-.88.05-.57-.03-.226-.13-.772.222-1.2.283-.37-.1-.98.147-.177-.166-1.61.483.3.123-.263.294-1.022.505-1.43.595.86-.166.987-.434.73-.187 1.106-.437.914-.265.7-.02.24.19.405.043-.204.325-.974.545-1.576.685 1.08-.25 1.39-.35 1.392-.324 1.238-.213 1.246-.197 1.383-.263.766.104.94.03 1.245-.124 1.09-.02 1.063-.19.594-.415-1.232.18-.02-.276.45-.514zm11.2 38.607l-.988-1.03-1.06.186.2.956m0 0l-.612.73.454 1.416 1.49-.804.516-1.453-1.846.11zM277.94 50.05l-1.42.13-1.85.805.747.41 2-.042.863-.673-.34-.63zm1.94.843l-.834-.385-.4.395.54.343.693-.357m-1.89 4.53l-1.77-.29-2.278.565-.89.625.765.726 1.61-.67 1.575-.785.98-.17zm101.81 3.34l-1.478-.93-1.22-.1-.08 1.07 1.476.373 1.295-.41M342.28 64.26l-.767-.6-1.484-.086-.78-.84-.75-.05-1.15.688-.446-.57-1.067-.123-.718.86 1.38.072.85-.246 1.526.582 1.143-.38.753.667 1.495.02m-1.245 1.46l-.337-.907-1.37-.465-.208.53-1.367.118-1.017.698 1.666.117 1.103-.528.643.532.89-.1m2.033-.3l-.83-.607-.232.62 1.06-.012m2.132 3.545l.055-.57-.44-.51.797-.23-.122-.677-.803-.533-.86.3-1.25-.123-.036.417 1.524.6-.63.203-.156.51 1.92.613m63.29 55.92l.59-.415-.773-1.477-.385 1.22.57.675m10.3-3.26l-1.33-.833.44.76m2.347 4.38l1.05-.153m1.02 8.962l-.63-2.068-1.325-1.452.39 1.834 1.02.78.55.907M427.8 92.7l.655-.213-.772-.927-.776-.92-.165 1.04 1.06 1.024m-1.9-1.312l.496.055-.507-.925-.672.423.688.448m59.73 34.9l.604-.418.985.993.505.128-.153-.882.65.11-.877-1.373.57-.23-1.2-.59-.897-.47v-.89l-1.01-.233-.38.577-.215.73.57 1.38.845 1.173zm4.857-.136l-.24-1.09-.054-.908.216-.37-.437-1.52-.48-1.53-.647-.706.66 1.403-.54-.477.393 1.313-.03.675.454 1.264-.33-.16.102 1.12.93.98zm-5.712-18.47l.528.22-.37-1.072-.732-1.256-.625-.74-.41-.86-.355-.09-1.446-1.893.924 1.47.687 1.194.577 1.013.595.815.63 1.193zm1.16 7.6l.58.362-.66-1.07-.932-1.03 1.013 1.734m-5.66-2.2l-.592-.44.33.648m1.69 1.28l.582.45M437.446 220.8l1.32-.215m5.744-1.748l1.29-1.066m31.457 14.34l.944.51.18-1.024-.355-1.57-.263 1.276-.502.814zm2.305-1.08l.608.49.452-.942-.45-.67-.654.346.042.78zm2.484-3.43l.416-1.38-.925-1.734.38-.95-.276-.914-.25.784.147 1.08.115 2.363.394.747M112.07 188.22l.25-.062m.16.57l-.124.834.08.595.484-.63-.092-.694-.35-.103m-.072 5.002l-.318 1.133.196 1.116.448-1.87-.326-.372m-.14 3.82l.207 1.047m-.183.78l-.117.974-.263.656.19.44.27.253.16-1.387-.197-.287-.043-.65M476.676 109l-.363-1.165-.44-1.336-.4-1.16-.544-.25-.57-1.14-.33.57-.06.063.442 1.306.67 1.62.82 1.09 1.115 1.575-.35-1.18zm-2.71 32.967l-.288-1.355-.785-1.2 1.287 1.078.865.552.82 1.085 1.21 1.416-1.204.074-.86-.545-1.04-1.105m3.818 4.506l.84.76 1.09.417 1.215 1.134 1.17 1.324.95-.098-.704-1.46.12-.87-.937-1.275-1-1.097-1.03-.932-1.037-.742-1.16-.08.67 1.74.113.872-.306.307m8.247-1.956l1.02.196.045-.7.815-.716.24-.876.765.01.19-1.27-.76-1.053-.755-.362-1.166-1.403-.995-1.606.41 1.78.172 1.76-.03 1.23-.438.52-.05 1.06.538 1.44M252.3 381.55l-.29 1.28 1.21.92-1.203.41 1.208.674 1.238-.618-.92-1.305-1.244-1.36zm49.658-49.568l1.19.048 1.176 1.195 1.52.312 1.203-.547 1.226.338 1.202.02-.606-1.166-1.48-.576-1.8-.35-1.81-.33-1.528.52-.303.535zm-22.546-14.493l2.3.27.667-1.12 2.02.216 1.24-.755 1.2-.767 1.73.484 2.32.473-1.78.448 1.113.977 1.74.423 2.637.19 1.128.955 1.47.366 1.75.694 1.77-.19.59.582.25 1.477 1.745 1.22 2.672.086.587 1.196-1.224.827-.905.834 2.395.075 1.796-.275 1.79.03 1.79.326 1.79.006 1.185-.59 1.79-.29-.29-.59-.89.013-1.185-1.143-1.785-.31-1.21.3.33-1.45-1.497-.293-1.77-.343-1.76-1.19-1.476-.63-1.437-.92-1.74-.945-1.75-.64-1.76-.09-1.15-1.26-1.416-.65-1.446-.7-1.74-.12-1.72-.738-1.74-.15-1.765.44-1.76.12-1.752.14-1.792.69-1.202.746-.08 1.15-1.777.385zm36.4 14.19l2.434 1.09.57-.59 1.813-.035 1.52.27 1.51-.355 1.81.245 1.52 1.63 1.194-1.476-.018-.854 1.79-.665.023.847 1.796-.374 2.064-.71 1.805-.13 1.228 1.06 1.17-1.526-1.57-1.303-2.99-.338 1.435-.957-2.07.14-.65-1.13-2.076-.15-1.796-.185-2.397.11-1.17.6-2.09-.8-2.118.056-1.17.89 1.79-.04.913 1.14.02 1.136 1.537 1.39-1.508.897-1.81.044-1.52-.544-1.81-.26-1.19.866zm26.475-.25l1.52.12 1.49-.43 1.47-.16.847-.95-1.225-.717-2.08.226-2.11.21.08 1.697zm-39.483-23.91l.245 1.23-.89.858 1.69 1.53.833 1.81.613-1.157-.846-1.206.03-1.21-.827-1.82-.86-.036zm37.056-93.89l1.76.713.747.85 1.508.394 1.686.085 1.41-.232-1.02-1.14-1.3-.41-1.5-.423-1.66-.06-1.62.222zm2.083 11.85l.98.822 1.656.723 2.29.62-.2-1.246 1.13-1.14-1.87.6-1.49.23-1.61-.387-.385-1.258-.51 1.03m-43.3-57.048l1.514-.136 1.77-1.373.04-.29-1.148-.102-1.38.485-.796 1.42zm6.387-.038l-.338 2.095.685.957.87-1.49.245-1.48-1.463-.084zm48.488 50.34l.718 1.49 1.716-1.02 2.14-.11 1.83-.418 1.827-.436 1.68-.1.31 1.22-.994 1.226 1.536-.024.743-2.16.905-.595 1.294.004-.104 2.004.963-1.25.41 1.507 1.437-.405-.136-1.94-.122-1.944-1.097.67.07-2-.693.517-.377 1.768-.77-.46.066-1.323 1.24-2.33-1.673.79-.926-1.053.72-1.858-1.33-.3-1.555.41-1.447.73-1.703-.914.734-1.16-1.497-.26-1.44 1.63.31-2.024.452-1.398.473-2.072.065-1.973-1.115.275-1.27 1.28-.446 1.383-.19 1.68-.53 2.065-.088 2.28-.774 2.106-.45 1.73.86.125-.953 1.483-.81 1.133zm-59.927-56.453l2.22.32-.185 1.8 1.605-.084 1.34-1.374 1.154-1.074 1.237.13 1.276 1.02 1.267 1.3 1.687-1.37-1.575-1.016-.665-1.57-1.075-1.285-1.7-1.393-1.34-1.63-.207-1.825-1.79 1.245-.668 1.42-.663 2.01.006 2.154-1.934 1.217m17.16-12.762l.55 1.77 1.716-.25.988-.875.247-1.477-.71-1.16-1.65-.02-1.14 2.014m-14.43-15.72l.783 1.614.478 1.832.81 1.563 1.75 1.44 1.815.23 2.497.814 1.33-.167 1.82 1.582 1.14-.53 1.318-1.666.68 1.47 2.164 1.778-.504 2.298 1.616-1.14 1.05 1.74 1.784 1.123.54 1.74.562 1.464-.95 1.19-1.084 1.51-1.25 1.19 1.44 1.76-1.564 1.23-2.116-.003-2.36-.66-.318 1.17-.946.287-.62 1.448.867 1.544 2.485.068 1.25-.88 1.777.293 1.662.882 1.55.576 1.43.85.08 1.52 1.505 1.13 1.342.547 1.78.472.67.857 1.71.778 1.686.466 1.81.11-.21-1.483-1.477-1.09-1.614-1.344-1.414-1.11-.857-1.42 2.06.735 1.702 1.038 2.01.987 2.13-.262.014-2.415-1.502-1.334-.43-1.765-1.262-1.04-1.936-1.308-.06-.094-1.106-1.594.073-2.404 2.8 1.49 1.123 1.985 2.054.928.173-1.84 1.68-.864.06-1.495.51-2.22-1.354-.96-1.69-.93-1.78-.96-1.56-1.258-2.22.253-2.05-1.286-.217-1.738 1.71-.754-1.747-1.265.35-1.496-1.28-1.62-1.908-1-2.01-1.91-1.46-.8-1.893-.226-.03-1.697-.4-1.11-1.626.264-1.215-.693-1.114-.37-1.396 1.053-1.335-.073-1.263.93.584-1.654-.57-1.6.54-1.478-.43-.87-1.353.144-1.68.933-1.53 1.237-.42 1.65-.39 1.39.13 1.43-.943-1.263.203-1.417.203-1.38.76-1.323.81-.845 1.754-.7-1.465-.276-1.65-.233-1.237.656-1.496 1.152-.92 1.28-.854 1.294-.552 1.92zm-3.09-12.044l.924.878 1.304.852.63-1.68-.26-1.27-1.042-.27-1.557 1.49m3.09-6.165l-.552 1.086.43 1.556 1.66.134.65.993-.14 1.36-.76 1.264-.38 1.625 1.715 1.103 1.755.514 1.624.415 1.76.232 1.273-.957 1.373.97 1.834-.422.715-1.312.12-1.28-1.556-.932-1.397-.124-1.564-.504-1.94.535-1.74-.68-1.024-1.122.62-.52-.75-.816-.14-.97-1.47-.32-.772-1.103-1.342-.725zm9.07-12.56l-.22 1.545.73 1.177 1.66.247 1.295-.26 1.71.15 1.84-.277-1.23.84-1.874.363-.86.6-1.25-.684-.944 1.613.878.654-.3 1.397.18 1.233-1.11.243-1.625 1.64 1.36 1.01h-1.968l-.344 1.29.68.667-1.06.226-1.375.748-.38 1.3 1.447.545 2.225.58 1.14-.42 1.134.415 1.047-.465.38 1.11 1.884-.7 1.19-1.28-1.186-1.41 1.38-1.006-.203-1.097 1.735-.213.655-1.593v-1.58l.694-1.574 1.684-.742.857-1.545.608-1.227 1.083-1.25 1.104-1.595-.135-.76.72-.97.466-.86-.196-.65-.96-.242-.896-.64-1.36-.21-1.257-.383-1.264.06-.914.32-1.075-.22-1.856.305-1.018.946-1.345.62-.988.483-.16.624-1.22-.194-1.193 1.095zm-12.644 3.758l-.134.663.79.93-1.09.63.12.875 1.15.89.93.33-.074 1.437 1.116-.226 1.29.213 1.03.184.7-.83.03-.826-1.01-1.47-.73 1.21-.885 1.096-.645-.375.26-1.122.63-1.17-.41-1.248-1-.36-.46-.81-.857-.35-.745.328zm-4.063 7.798l-.167 1.435-.41 1.073.11 1.536 1.625-.167-.11 1.966 2.01.65 1.177-1.44.46-1.33.552-1.16-.79-1.256-1.338-.55-.997.642-.774 1.227-.17-1.4-.324-1.06-.86-.168zm-13.93-6.822l-.39 1.44.864.433.62.86 1.597-.35 1.226-.57.418 1.12 1.92-.526.62-1.09 1.3-.22-.174-1.12-1.263.342-.93-.748-1.17-.05-1.42.14-1.672.423-1.536-.08zm1.534 5.53l.73.978.42.916 1.415-.31v1.337l-1.428-.014-.123.827.82.787 1.122.16 1.397-.34 1.373-.092 1.61.944 1.2.224.98-1.225 1.027-1.05-.766-.89-.59-1.427.54-1.52-1.06.32-1.257.634.363.76-.76.657-.185 1.184-1.395-.972.338-1.193.016-.98-.54-1.3-.85-.705-1.282.607-1.655.863-1.46.825zm-13.915 3.92l-.037 1.925-.986 1.993 1.766.203 1.22.49 2.055-.78 2.022-1.514 2.017-.123 1.777-.056 1.89-.1-.424-1.64.25-1.612-1.378-.927-.62-1.54-1.722-.17-1.67-.545-1.14 1.796-1.605 1.14-1.82.784-1.603.674zM427.58 409.33l.882-1.092 1.852-1.572.846-1.11 1.84-1.624.627-1.04.355-.927.583-1.055 1.195-1.114.336-.963.65-1.28.834-1.386.066-.884.295-1.012.05-.9.52-1.16.597-1.53 1.66-1.48 1.46-1.56 1.53-1.93.977-1.503 1.203-1.646.844-.97 1.61-1.57.91-1.372 1.39-1.67.89-1.375.913-1.594.9-1.61.45-1.735-.07-1.07-.332-1.118-.336-1.16-.59-1.01-1.667.56-1.496 1.065-1.47.61-.926-.283-1.46.185-.974-.28-.95-.33-1.49-.05-1.496-.057-1.52-.105-1.564.766-1.59 1.192-1.58.745-1.562.1-1.6.723-1.587.072-1.61.503-1.65 1.34-1.91 1.208.57-1.51-.79-.73-.504-.88-1.66 1.116-.544-.67-2.226.46-1.666.19-1.937-.14-1.96.723-1.16.84-1.15 2.38-.848-.125.596-1.313.56-1.98-1.98.263-1.714.808-1.722.36-1.46 1.14-.01 1.547-.575 1.95-.847-1.49-2.06 1.3.33-1.63.562-1.515 1.46-1.38 1.14-1.256 1.44-1.84.25-2.16-2.01.436-.63-1.672-1.196-1.52-.057-1.648-1.79-.89-1.182-.37-1.79-.43-1.514-.556-1.79-.22-1.504-.055-1.185.056-1.79.008-1.79.196-1.783.454-1.778.705-1.798.434-2.096.22-.862-.714-.08-.056-1.262-.47-1.852-.59-1.47.555.23-1.313-.673-1.105-1.862-.657-1.862-.643-2.16-.607-2.716.986.54-1.89-.695-1.43-2.144-.155-1.556-.24-1.194.44-1.307-1.11-1.26-.845 3.01-1.005-2.12.33-2.45.368-2.135.3-1.783 1.563-1.826.77-2.15-.025-1.57-.32-.655-.717-1.52.164-1.55.41-2.153.2-2.19.447-.62-.987-.375-1.296-1.537-.667-1.867-.117-1.562.102-.68-2.096-1.502.894.62 1.3-1.51.88-1.557.62-1.562.58.03 1.85 1.294 1.752.025 1.798-2.207.627-.313-1.286-.95-.988.92-1.597.92-1.073-.65-1.3-.953-1.54 1.858-.62.907-1.35-.606-.77-1.27-.238-1.212.85-.92 1.12-1.558.56-1.227.825-1.857.834-2.505-.22-.93 1.055-1.532-.246-1.57.53-.936 1.038-.306 1.56v1.558l-1.58.235-.944 1.28-1.888 1.258-.012 2.286-1.575-1.56-1.232-1.08-1.232-1.055-1.57-1.08-1.574-.35-1.525-.57-1.876-.1-.95.97-1.882.406-1.88.367-2.22.35-1.22-.862-1.57-.134-.562-1.353-1.545-.92-1.53-1.184-.88-1.4-.884-1.387-.547-1.39.64-1.265.06-1.597.692-1.794.07-1.614.072-1.88.976-1.27.1-2.465-.596-.625-1.464-.686-.065-.058-1.387-1.497-1.508-.45-1.17-.44-1.82.07-1.786-.54-1.837.31h-1.81l-2.046-.846-2.166.484-1.402-1.075-1.45-.82 1.855-.785 1.06-2.082.13-1.674.503-2.75.772 1.525 1.017-1.546.47-1.92.416-1.66.418-1.666.734-1.63 1.58-1.228.117-1.424-.82-.717-1.73-.27-1.428-.51-1.748-.015-1.785.295-1.748-.037-1.74-.043-1.197.366-.512 1.94-.424 1.384-.705 1.01-.14 1.43-1.2.35-1.235.61.195.9-2.066.114.053-.54-2.004-.75-2.084.394-2.03-.16-2.078.05-1.13-.28-.993-1.39-1.624-1.01-1.617-.986-.958-1.73-.646-1.65-.594-1.924-.93-1.43-.656-1.36-.342-1.59.736-.97-1.454-1.64-.275-1.877.784-1.25.288-1.722.296-1.734.3-1.735.85-1.582.818-1.6 1.06-1.235.013-1.55.32-1.76-.21-1.926.62-1.69 1.25-.876 1.78-.73 1.783-.783 1.62.136 1.19-.626 1.22-.623-.51-1.702 1.13-.314-.258 1.473 1.715-.51 1.36.04 1.87.14 1.48.94 1.53.674 1.465-.612 1.41 1.527.08 1.24 1.558.65 1.9.043 1.17-.373 1.026.48.692 1.055.623-.52-1.46-1.484.08-.62.877-.432.375-.863-1.342-.245-1.374.11-1.046-.5.03-.067 1.006-1.373 1.465 1.21 1.71-.62 1.336.23 1.566.565.906-.777.4 1.33 1.607.25 1.643-.087 1.64-.06.974 1.068 1.557.84.41 1.57 1.657-.087 1.418-.763 1.65-.102L286 289.64l1.227 2.27.797.403.402 1.88-.36 1.47-.087 1.232 1.123-.22-.65 1.758.19 1.258 1.036 1.297.76 1.59.747 1.868 1.372 1.3.51 1.546 1.42-.213.884-.518.932-1.74.39-2.105.09-2.098-.755-2.158-.735-2.2.054-1.204-1.037-1.906-.437-1.87-.716-1.894-.19-1.863-.15-1.864.92-1.788.91-1.783 1.692-1.445 1.65-.82 1.648-1.136 1.103-1.178.84-1.225 1.614-.865 1.335-.244 1.355-1.19 1.317-1.23 1.853-.26.797-.927-1.558-.03 1.574-1.21 1.02.016.54-.934.007-1.272-1.294-.02-1.544-.03 1.304-.575 1.017-.33.767.35.768 1.245-.766-1.245-.227-1.585-.508-1.25-1.263-1.3.018-1.246.294-1.58-1.745-1.29 1.49.338-.218-1.257-.21-1.893.5-1.246 1.243-.624-.52 1.243-.014 1.285-.497 1.544 1.213.662-.247.946.99.005-.49 1.242-.534 1.883.76-.293.527-1.88 1-1.58.748-.943-1.242-2.2-.46-1.9.97.65.732 1.25 1.48-1.257.95-1.9.47-1.82.006-.086-.965-.633.938-1.26 1.43-.976 1.42-.684 1.43-.037 1.43-.05 1.403-.704.435-1.276.75.92 1.14-.705.03.64 1.87-.756-.074-1.257.057.95-1.418.086-.566-1.57-.957-.563.65-.98-.27-.944.63-1.325.84-1.31-.036-.646 1.338-.69 1.54-.755.81-1.665.723.59 1.52-.777 1.293-.723 1.25-1.075-.13-1.286 1.993-.21 1.71-.81 1.812-1.527-.07 1.317 1.716-.57-1.6 1.516-1.013.738-1.43 1.47-.502 1.632.634 1.54 1.465.79 1.21-1.416 1.19-1.46.72-1.36 1.33-.185 1.644-1.2 2.49-1.358 2.067-1.007.23-1.315 1.386-.907 1.28-1.52-1.936-.914-.148-1.91-.747-.52-.55 1.72-1.01 1.76.27 1.574-1.344-.087-1.41.847-1.79-.036-2.127-.97-1.59-.44-1.123-1.776-.49-2.164.226-1.642-2.05.9-1.89-1.702 2.51-.28 1.174-.798 1.31-1.136-.17-1.243-.944-.834-1.73-.43-1.81.515-1.806.54-1.563 1.11-1.38.734-1.595 1.084-1.36 1.398-.956 1.63-.97 1.355-1.005 1.316-1.704.735 1.017-1.342.778-1.305 1-1.31.75-1.35.945-1.624 1.35-1.398 1.52-1.692 1.652-.147.23-1.623.88-1.35 1.738-.84 1.4-.16 1.605-.197 1.755-.54 1.37.113.06-.01 1.402-.21 1.573-.245 1.3.44 1.718-.64 2.177-.4.912-1.46.72-1.415.66-1.454L354.18 205l2.19-.802 1.16-1.563.863-1.183-1.385-2.272-.05-1.63-1.937-1.478-1.603.373-.56-1.466-2.212.14 1.46-1.592-1.28-.685-2.01.116-.98-1.11-2.33.15-.694-1.486-1.913-.612-1.11-1.067-.366-1.83.608-1.354-1.19-.75-.253-1.245-1.226-1.04-1.323-1.68-1.152-1.705-1.434-1.664-1.25-1.69-.83-1.122-.743 1.324-.64 1.002.81 1.127-.576 1.637-1.336 1.08-.49 1.28-1.878 1.11-1.55-2.025-1.167-.21-1.115-1.475-.104-1.214-.004-1.842-.602-1.506.185-1.557-1.406-.202-1.387.075-1.426-.854.393-1.224-1.397-.86-1.245-1.2-1.353-.882-2.046.637h-1.19l-1.61-.637-1.755-.337-1.208.87-.073 1.532 1.004.943-.52 1.486-.68 1.514.89.95.228 1.842-.055 1.544-1.033 1.48-1.3.28-.246 1.21 1.105 1.27 1.132.67.59 2.17.3 1.57.46 2.177-.07 2.5-1.115 1.548-1.68 1.483-1.7 1.2-1.703.86.63 1.575.472 1.607.08 2.194-.098 1.883.852 1.93-1.454 1.83-2.04 1.177.102 1.26-1.51-1.35-.655-1.636-1.06-1.33-.834-1.66-1.353-1.71.55-1.848.16-1.53-.367-1.57-.028-.056.847-2.758-1.68-1.11-2.147-.226-2.146-.256-1.882-1.833-1.643-.84-1.287-.84-.9-1.74-1.63-1.533-1.883-.99-1.716-1.596-1.637.307-1.3.33.312-1.192-.257-1.668.398-1.48-.19-2.298-1.176-.584-1.336-.025-.166-1.614.552-1.777.803-2.055.89-1.345.9-1.372 1.41-1.557 1.3-1.28 1.306-.308.51-1.76 1.702-.27 1.832-.258.314-1.798 1.61-1.835 2.428.44 1.6-1.57 1.555-1.58.36-1.76 1.993-2.134-.896-1.32 1.915-.02.473.957 1.918.805 1.84-1.28 2.04-1.313.59-2.01-1.684-1.026.225-1.74 1.62-.743.245-2.152-1.846-.61-.06-1.196-1.65-.737-1.613-.196-.33 1.71-.264 2.01-.37 2-1.74.975-.29 1.416-1.2.437-.86-2.22.636-1.68.337-1.44-.81-1.914-1.92 2.04-.527-1.887-.44-1.594-1.13-1.133 1.804-1.116-.206-1.82-.545-1.288-.495-1.607-.178-1.82 1.127-.897-.16-1.202 1.19-.31 1.25.276 1.066-1.232 1.104-1.193.76-.71-.826-.815-1.833-.92-2.175.057-.944 1.226-.183 1.396-.368 1.672-.52 1.354-.62 1.62-1.25.57-1.166 1.59-1.31 1.63.54 2.285 1.58 1.895-1.35 1.187-.047 1.81-1.82 1.366-.467-.05-1.04 1.49-.94-1.448.605-1.816.016-.077 2.214-.747-.324-2.21-1.178-2.17-1.51 1.386-1.716.68 1.39 2-1.325.82-.93 1.882-1.784-.235-2.02-1.337-1.134-1.49-1.416-1.783-.33-2.267-1.75-.17-1.875-.178-1.526.607.902 1.417-1.22 1.12-.97-1.14-.673-1.35-1.896-.27-1.974-.4-.96-1.22-1.29-.754 1.05-.83 1.385.26.304-1.6-.82-1.56-1.453-1.054-.787-1.49-.735-1.63-.074-1.7-1.493-1.133-1.667.85-.596-.724 1.494-1.556-2.36.83-.27-1.018.996-1.62.373-2.18-2.047 1.04-1.2-.276.92-1.312-1.784-.373-1.944-.38-1.403.06.025-1.126-.913-.638-1.52.104-1.362.845-.084-1.673.393-1.525.146-1.537-.706-1.352.25-1.12.32-1.325-.556-1-.76-.784.277-1.33-.533-1.15.307-1.71-.418-1.17-.36-1.024 1.086-1.44-.46-1.58.81-.78.41-1.54-1.855-.514-.35-1.202-1.635-.794-.423-.95-1.54-.57-1.69.18-1.342-.1-.595-1.123-.308-1.048-1.77.3-1.25 1.262-1.086 1.587-1.74 1.06-1.14 1.44-1.375 1.29-1.22-.04-.09-1.73 1.465-.562-.016-.9-.87-.898-.83-.92-1.4-.68-.595.803-.354 1.126-1.127-.03-1.152.746-.606 1.82.3 1.355-.506 1.352.92.554.607.77.038.077-1.436.25-1.38 1.145-1.735.383-.4-1.39-1.483-.362.81-1.44-.865-.6-1.122.213-1.684-.213-2.237.196-1.417 1.5-1.666 1.084-1.65 1.467-1.334 1.244.05 1.125 1.414.526-1.856 1.53-1.11.153-1.33 1.11.633.542.23 1.967-1.49 1.74 1.12-.2-.104 1.065.404.667-1.886.884-1.93.78-1.22-.38-1.482-.258-1.23-.794-1.68-.018-.392-1.257-.895-.96-1.365-.22-.84-1.14-1.33-.897-.78.672 1.092 1.144 1.084.772.608 1 .86.47.637 1.13.957.96.71.957 1.405-.247.98.67 1.324.87 1.48-.03 1.608.563 1.41.67 1.238.09 1.54-.093.22-1.318 1.19-.277 1.09.546 1.557.004 1.72-.593 1.35.118 1.506.65.35.937h-1.3l-.96-.84-1.908.976-1.828.29-.32.986-1.276-.036.71 1.183 1.41.354 1.416.21.438 1.072 1.85-.356 1.76-1.36-.087 1.38.473 1.035-.387 1.355-.405 1.95-.102 1.795.693 1.256.73 1.25-.055 1.71.418 1.213 1.22.124-1.34 1.39-.035 1.626-.558 1.95-.345 1.648-.005 1.558-1.097 1.68-.51 1.92-1.047 1.713-1.15 2.056 1.817-1.73 1.373-1.844 1.39-1.293.266-1.674.49.62 1.354-.864-.808 1.416-.046.062-1 .75-1.134 1.607-1.16 1.097 1.216-.03 1.176-.55-.552 1.276-.44 1.398-.466-1.457-1.44.24-1.19 1.52.76.43-1.103 1.09-.636 1.23-.283 1.118.012 1.434-.578 1.675 1.52-1.596.95-2.22.646-1.665.11 1.09.576.633-.96.797-.717 1.57-.362 1.45.07 1.44 1.27.38-1.703.97-.32 1.03-1.374-.056-.73 1.97.138 1.477-.686 2.465.423 1.715-.858 1.796-.19 1.532-.78.973.3 2.02.754 1.482.576 1.754.136 1.8.21 1.798.386 1.533 1.495-.02-1.078 1.56.164 1.336-.33 1.746-.61.296-.31 1.76-1.47 1.25.214-.645-1.08-.03 1.6-.76-.483-1.576-1.11-.883-.852-1.916-.675.66-.256 1.01-.484 1.65-.635 1.907-.558 1.14-.57 1.183.98 1.55-1.31-1.05-.706 1.068-.68 1.42-1.16 1.08-1.01 1.587-1.145 1.464-1.46 1.58-1.617 1.495-.836 1.705-.184 1.426-.64 1.85-1.103 1.472-1.41 1.207-.467.8.16 1.31-.122 1.447-.62 1.09-.586 1.45.067 1.627.37 1.452-.734.943.87 1.04.43-.81.515.803-.602.27-.21 1.76-.43-1.47-.56 1.49-.04 1.464.705.54-.7 1.368-.6.674.516 1.87.055 1.915.29 2.43-.714 1.576-.06.066 1.41 1.71 1.05 1.464.872 1.343.753.5-.27 1.24.76.51.694 1.86v1.78l-.29 1.93.11 2.18-.15 1.668.172 1.482-.325.84.49 1.337-.533 1.41.52.65-.51 2.07 1.05 1.332.77 2.16.49 1.625.48 1.6-.477 1.417-1.38.203-1.41-1.145.926 1.86.07 1.368.68 1.07.85 1.47 1.09.614.57 1.613 1.095 1.573.18 2.05-.497 1.68-1.02.764 1.588 1.81.86 1.724.8 2.01 1.12 1.82.37 2.718 2.097-.86-.59-1.868-.753-2.273-1.158-.584-.32-1.763.6-.313-.606-1.61.32-1.116-.43-2.16.04-1.933-.855-2.407-.36-2.166-.77-1.725.098-1.94-.398-1.904-.62-2.034-.368-1.87-.78-1.463-.227-1.514.73-1.253.097-1.668.33-1.54.62-1 1.135 1.694.963.22.528 1.32.877 1.14-.51 1.43.057 2.06-.18 1.24.38 1.893.097 2.055.785 2.41.813 2.4 1.52 1.1-.514 1.7 1.182 2.234.373 1.46.7.345.38 1.497-.8.89-.233.847.965 1.42 1.69 1.752.45 2.41.93 1.71.927 1.66.84 2.245.724 1.54.934 1.96.755 1.53.027 2.48.833 1.254-.234 1.11-1.242.717.35 1.054-1.216.4.717 2.097.924 2.125.026.06 1.694 1.565 1.38 1.72.803 1.79 1.99 1.637 1.82.95.81.284 1.184 1.573 1.68 2.05 1.558 1.116 1.57 1.08 1.54 1.36 1.624.83 1.56 1.335 1.576 1.33 1.93.847 1.94 1.13 1.912 1.08 2.077-.284 1.81-.375 1.72.44 1.416.663 1.4.88 1.34 1.16.79 1.02 1.342 1.71 1.38 1.41 1.064 1.358 1.696 1.19 1.734.88 1.777.356 1.73 1.153.83.974 1.51.285 1.746 1.124 1.48.25 2.13.354.626-.72 1.15 1.55-1.23-.197 1.152 1.54 1.145 1.236 1.463 1.56 1.446 1.264 1.497 1.257-.053 1.32-.35 1.28.532 1.355 1.242.44.575.575 1.292-.87.888 1.14 2.117 1.3 1.194 1.15-.342 1.503 1.86.44.912.855.95-.4 1.863.418 1.857.68.92 1.08 1.876.148.27 1.77 1.58-.128 1.895-.63-1.562-1.106-.283-1.055 1.582-.38 1.25-.693.962-1.237 1.236.067 1.563.845.924 1.33 1.246.05-.958.968.926 1.797 1.576 1.325 1.238 1.3-.307 1.208.29 1.986-.005 1.463.336 1.463-.65 1.42 1.25.99-1.262 1.156-.956 1.613-2.2-.087-1.3 1.35.343 1.185-1.6.15.645 1.194-1.9.59-2.544.755-.265 1.684-.04.11-1.592.784v1.33l-1.588.336.65 1.81.005 1.3-.646.37 1.295.528 1.56 1.384.33-1.256 1.56.094-.607.81-.63 1.237-1.25.35-1.883.698-1.874.91.01 1.042.62 1.268 1.306 1.313-1.27.7 1.29.69 1.9.73 1.256.858 1.255 1.06.66 1.38 1.895.877 1.264 1.197.656 1.152.655 1.133.62 1.12 1.895 1.49.65 1.083 1.243 1.086.647.722 1.24.706.643 1.03 1.24 1.36-.29.976 1.56.995 1.22.637 1.215.63 2.46.787 1.833.13 1.82.743 2.434.546 1.2.13 1.805.53 1.802.376 1.17.688 1.213.214 1.77.63-.05.857.23.95.533 1.052-.375.82-.062.782.263.75-.38.77-.336.755-.94.775-.06.706-.06.694-.342.69.214.648-.05.546-.9.468.51.685-1.24.863-.06.582-.908.607-.326.563-.89.568.523.328.184.663-1.116.293-.35.492.23.52.196.436-.04.29.51.25-1.173.59.22.373-.826.275-.342.37-.84.365-1.073.355-.577.328-.532.3-.775.118-.035.27-1.275.025-.547.3.722.186-.024.18.238.17.197.182-1.262.196-.03.184-.248.04-.24.08v.076l.207.028.466.067 1.15-.005.516-.086h1.402l-.74.09.686.012-.72.05-.067.102-.733.068.434.024-.97.05h.443l-1.165.034 1.81.096 2.5-.095 2.405-.124 2.063-.094 1.907-.123 1.813-.157 2.125-.155 1.69-.125 2.342-.25 1.28-.127 1.313-.156.906-.126.15-.14.23-.038-.07-.012.833-.123 1.986-.29-1.76.21 1.532-.24.75-.054 1.37-.19.374-.086-.22-.038-2.198.338-1.273.124.25-.144-.265-.075 1.074-.196 1.304-.104 1.33-.143 2.33-.338 2.017-.37.41-.143-.344-.012.98-.3.66-.207-.765.012.45-.22.595-.01 2.157-.36 2.2-.42 1.49-.31 1.97-.405 2-.467 1.54-.384 1.856-.498.76-.333 1.502-.516 1.312-.52.12-.266-1.17.226-.45-.116 1.08-.516-.76-.017-2.27.297-.306-.15.72-.365 1.245.01 1.98-.44.845-.044 1.615-.28 1.77-.486 1.92-.435 1.524-.44 1.652-.596 1.49-.604.502-.35 1.73-.7 1.636-.795.867-.6 1.507-.68 1.752-.782 1.753-.79 1.383-.83 1.415-.85.877-.705 1.423-.9 1.63-.993 1.53-.82.89-.47.906-.795.64-.718.145-.56.51-.888.377-.68 1.563-1.015 1.6-1.06 1.84-1.172 1.59-1.09 1.655-.834 2.013-1.197.88-.153 1.655-1.28 1.508-.627-.26-.3 2.083-.974 1.44-.52 1.497-.65 1.542-.793 1.48-.666.34-.68 1.664-1.09 1.668-1.103.408-.83M284 126.205l.097 1.11-.294 1.297 1.128.4.406 1.68.263 1.913 1.783-.693 1.775-.068.962-1.845.3-1.91-1.184-1.024 1.65-1.152.045-1.76-1.34.34-1.16-.66-1.298.17-.7.958.16 1.772-1.434-.646-1.155.12zm-17.846-3.925l.524 1.352-1.128.733.232 1.366 1.38 1.2 1.444.725.7 1.546-1.896-.026-1.49-.878-1.336-.61-1.146 1.95.687 1.49 1.48.863-.76 2.372 1.71.63 2.08.656 2.29.1 1.865.17 1.852-.485.435 1.54.994 1.476 1.73.16 1.79-.49-.01-1.398 1.516.233.92-1.44-1.62-1.245-1.132-1.444-.422-1.612 1.215-1.716.37-1.896.424-1.38 1.668-1.09 1.14-.925-.27-1.16-1.508-.52-1.74 1.14-1.534 1.225-.81-1.668-1.46-.135-.48-1.167-1.98.375.946-1.834-.98-.566-1.433.3-1.508-.135-1.446.134-.7.753-1.372.25-1.224 1.06zm-60.6 34.043l-1.447 1.724-.043 1.367-.975 1.73-.518 1.727.02 2.33.83-1.87-.008-1.384 1.038-.71.87-1.84 1.69-.95-.803-.878-.656-1.248zm-2.507 16.4l-.33 2.273.422 1.668.432 1.654-.69.643.52 1.313.105 1.335.797.68-.543.767.68 1.79.594 1.31 1.204.142.066-1.98-.335-2.27v-2.06l.342-2.194-.767-1.514-1.01-1.718-.515-1.76-.97-.086zm166.57-49.654l-.675-.644.22-1.372-1.572-1.098.34-1.066 1.117.657 1.372.87 1.173-.25.742-1.086-1.38-1.26-1.214-1-1.782-.425-1.768-.105-1.594-.228 1.47-.306 1.58-.342-.813-.968-1.624-1.012-1.057.32-.017-.982-.11-.76.65-.89-1.074-.814-1.23.324.613-1.912-1.038-1.163-.71.73-1.233-1.54-1.52-1.07-1.827-.76-1.092.563-1.06-.853-.195-1.08 1.46-.61-.91-.802-1.855-.7-1.43-.3-1.316-1.25-1.406-.68-.52-1.023-1.092-.957-1.055-1.208-.986-1.356-.61-1.16-1.143-1.933-1.616-.026-1.257.857.502 1.16-.73.25.4.904.114 1.06-.398 1.106-.88-1.32-.198-1.054-.293-.545-.96-.446-.496.69.83.57-.38.646-1.123-.82-1.6 1.23.085-.82 1-.655.804-1.163-.124-1.105-1.33-.07-1.06.355-1.03-.338-1.57-.035-1.33.833-1.603.73-.67 1.2-1.213 1.336-.313 1.385.375 1.244-1.513.354.372 1.426-2.027-.49-2.086 1.276-1.073 1.226.692.92-.074.925-1.14.013-.547.89-.828 1.31-.354 1.448 1.73-.19.55.977-.445 1.81-2.047.77-1.115.933-1.453.605-.454 1.316.07.09 1.034.833 1.056-.207.373 1.067 1.384.642-1.282.415-.925.79.86.67 1.38.556-.585.76 1 .74 1.85.52 1.013-.803 1.686-.36 1.558-.24 1.81.845 1.653.18.374 1.11 1.153.943 1.49 1.277.583 1.595 1.33 1.14.674 1.276.36 1.986 1.036 1.19.124 1.71.883.706 1.425-.37.32-1.273 1.434 1.687 1.57.15 1.103 1.496-2.263-.423-1.69.362.344 2.003.41 1.99 1.92.833 1.636-1.09.48-1.81 1.462 1.73.78 2.543-2.024.613-.43 1.635.306 2.097.63 1.973.99 1.587.64 1.692 2.213 1.244 1.4 1.78.793 2 1.465.81.705 1.39 2.483 2.1.864.99 1.765 1.672 1.54 1.43 2.526 1.43 2.31-.54 1.78-.01 1.62 1 2.623.288.797-1.04-.196-1.956-.76-1.71-.508-1.813-.154-1.98-1.845-1.9.73-1.685.123-2.114-.62-1.76-.865-1.635-2.077-1.74 1.496-.364-.404-1.523 1.145-1.293 1.876-1.004.903-1.918.35-1.625.182-1.588-.387-1.546-.52-1.5-.117-1.78.27-1.286 1.35-.93.597-1.575.778-1.33.497-1.576.22-1.387-.065-1.605-.026-1.628-.394-1.307-1.254.68-1.776.3-.377 1.502zm14.417 10.733l.963-.44.375-1.148 1.085-.18.203 1.557-.284 1.924 1.43-1.28 1.95.786.378 1.81 1.766-1.66 1.675-.326 1.655-.827.055-1.92.594-1.12-.198-1.76.36-1.938-.843-2.005-1.76-1.334-1.53.39-1.814-1.27-.465 1.05-1.2-.05.513 1.32-.115 1.103-1.06.203-.598 1.127.35 1-1.23-.104 1.35 1.33-.56 1.4-1.697-1.415-1.61-.196-.95.41.692.65-.645.57.845.97.315 1.37zm-99.61-82.646l-1.748-.403-1.14.343-.692.736-.835.86-1.03.122-.34.84.05.89.59.33 1.1-.202.544-.312 1.68-.01-.18-1 2.403-.123.643-.92-1.052-1.148zm34.1-.544l-1.392.432-1.69-.063-1.428.32v1.054l.773.73 1.097.565.797-.34.59-.87.72-1.01.53-.82zm4.48 5.21l-.072-.935-1.213-.564-.29-.96-1.398-.51-1.07-.46-1.134.086.09.907-.606.87.5.755 1.01.46.206.753-.436.514.514.62.343.604 1.62-.54.633-.863 1.297-.74zm46.33 2.29l.327-1.073.19-.925-.756-1.146-1.08-1.14-1.083-.356.234 1.145-.68.723-1.177.57-1.44.373-1.593.014-1.73-.102-1.733-.057-1.722-.02-1.912-.16-1.74.023-1.894-.32-1.96-.28-1.58-.5-1.84-.367-1.7-.25-1.27.655.546.737 1.763.3 1.345-.135 1.77.607 1.33.87 2.11.48 1.605.127 1.11.062 1.82.636.92-.33 2.17-.1 1.916.252.596-.583 1.456.44 1.956.076.804-.42 1.48.53 1.45-.35zm65.69 94.163l1.392.7 1.172-.117.587-1.47.24-1.58-.24-1.97.554-1.636-1.02-1.23-1.05-1.27-1.498-1.073-1.336-.745-.416-1.766-1.586-.92-1.22-.294-.792.75-.844.877-.147 1.47.81 1.596.92-.3.42 1.083-.52.834-.62.96.69 1.185.948-.3.222 1.354 1.393.096.468-.736.915 1.99 1.13 1.64-.57.87zm-323.197 50.89l-.404.883-.33.03-.432 1.556-.353.62-.03 1.088.325-.214.308.18.26.588.36-.01.06-.98.24-.92.016-.95-.024-.91.014-.95zm122.87-172.16l-1.22.5-.715.337-.705.472-.33.324-.1.24.344.133-.43.422-.262.43-.583.612.496.103.356.136.98-.044 1.005-.098.7.08.247.25.086.338.13.265.914-.22.734.037.288.29 1.52-.516 1.36-.423.596-.02 1.526-.57 1.24-.59.23-.625 1.465-.834-.104.37.7.103.98-.51.1-.457.68.11.66.123 1.29-.638 1.546-.473.544.024-1.02.675-.55.674-.658.662-.498.705-.147.668-.264.545-.54.69-.51.59.076.41-.04.5-.596.668.122.424-.546.675-1.367.89-1.502.87-1.35.803-.85.245-.306.62-1.706.784-.89.73-1.117.59.265.14.455.154-.503.497-1.304.598-1.086.617-.48.515-1.047.278.204-.644-.93.204-.908.68-.81.97-.126.453-1.09.68-1.256 1.24 1.053-.325 1.03-.68.834.42.45.583-.05.82.412.662.404.67-.65 1.04-.76.945-1.14.676-.423.875-1.07-.562-1 .076-1.19.263.057.9.233.73.35.63-.394.72h1.163l.897.355-.57 1.236-.79.362-.123-.71-.11.006-1.183-.167-1.504-.147-.73-.25.37-.92.06-.82-.59-.362-.423-.715-.216-.925-.66-.44-.307-.736-.2-.835.272-.84.837-.76-1.05.207-.637-.355.448-.76-.9-.258-.89-.245-1.292-.03-1.12.154-1.44.286-1.2.277-1.65.35-1.49.25-1.857.614-1.292.273-.98.154-1.016.355-.202.75.147.62.685.433h1.19l.037.656-.995.986 1.146-.27 1.14-.055.227.54-.52.916-.82.68.16.448 1.587-.673 1.416-.27.68.317-.122.582-1.132.593-.01.48 1.532-.37.89-.556 1.132-.105.6.51 1.32-.774.084-.57 1.31-.27.676.415.532.63.905.227.987.13-.353.944-1.047.705.422.61-.314.95-1.68.13.62.68.14.73-.17.845-1 1.114-1.28.874-1.394.724 1.24.232.13.907.403.876.494.767.555.752-.233.864.585.742v1l.388.767-.62 1.39-1.22 1.13 1.05.55 1.268-.692 1.835-.76 1.76-.547 1.21-.44.396-.923 1.38-.18-.815 1.324.425.886.257.4.01.06.254.24 1.51.203 1.374-.877.76.813-1.448.38-1.54.578-.57.95.32.64-.858 1.194-1.478.474-1.072 1.02-1.41 1.48-.82 1.29 1.372-.06 1.005.387 1.718-.41-.196 1.21 1.06.27.76.6 1.6-1.44 1.6-1.22.848-1.686.3-1.38 1.583-.77 1.36-1.025 1.483-1.25 1.244-1.33 1.435-1 1.453-.974.062-.014.335-.24 1.257-1.06 1.03-1.16 1.367-1.145.654-1.312.93-1.163.927-1.133 1.007-1.183-1.89-.07-1.6.33-.484-.526.232-.747 1.21-.183 1.14-.836 1.096-.005-.54.77.664.252 1.22-.937-.705-.55-.376-.62 1.35-1.054 1.39-1.324.957-1.427 1.16-1.24 1.618-.773.852.605 1.476-.014 1.34-.45 1.22-.882L259 56.2l.68-1.08.882-.716.662-.78.9.29 1.362-.315.765-.57 1.21-.17 1.428.385 1.514-.594 1.416-.925 1.968-.562 1.455-.62 1.435-.6 1.76-.73-1.168-.183 1.324-.67-.11-.52-1.006-.263-1.36-.28 1.75-.67 1.782-.98 1.185-.14.694-.48.164-.588 1.275-.147 1.68.228-.35-.73-.417-.685.307-.76 1.3-.12 1.636.258 1.475.51-.183.886.42.876 2.017.374 1.912-.22 2.434-.152 1.85-.455-.206-.612-.895-.43 1.324-.452 2.223-.3h1.768l.17.746 1.49-.244 1.52.097 1.1-.287 1.133-.45 1.18.958-.33.676 1.3.03.434-.355-1.403-.35-.38-.725 1.06-.096.946.214 1.118.24.626-.505-.79-.41 1.403-.388 1.335-.343 1.19-.03-.68.76-.08.03-1.135.323-1.3.84-1.25.7-1.313.913-.97.735.135.97.533.78 1.133.55 1.17.24 1.41.066 1.234-.055.25-.51 1.25-.033-.876 1.025 1.287.132h1.49l-1.53.69 1.636.675 1.33-.65 1.355-.798.128-1 1.77.11-.25-.68 2.574-.11-.47.607 2.17-.25 1.346.182 1.24-.477 1.606-.066 2.004-.12 1.447-.36 1.245-.38.474-.577-.025-.82 1.854.27 1.705.127 1.86.358 1.77.384.375-1.07.747-.77-1.178-.7-.13-.85 1.592.165.484.957.762.75 1.035.362.358.645 1.19-.08-.834-.99.897-.022.447.68 1.146.104.202-.79-1.11-.912-.15-.55 1.454.87 1.43.883-.895.686-1.175.416-.646.815.367.87.614-.096-.42-.72.526-.514 1.104-.258 1.25.164 1.54-.403-.07-.735.24-.77 1.304-.29 1.103-.54.804-.832-1.72-.87 1.54.148.995-.542.63-.834 1.796-.03 1.4-.177 1.894.226 1.648.293.547 1.054-2.296-.453-1.46-.036-1.612.087-.787.466-1.25.255.38 1-.954.59-1.205.65-.963.62-.96.63.043.93-1.417.275-.08.033-1.12.335-.657.467.927.99-.82.19-.21.67 1.33.245 1.385-.28 1.422-.27 1.23-.548 1.39-.258 1.925.263 1.104-.38.403-.73 1.344-.23.73-.35-.59-.7.53-.815-.3-.7 1.603-.226.4.747.027.74.778.82.4.802.847.7.277.992 1.02.863.67 1.31-.094 1.073 1.3.05.12-.602-.296-.873.546-.51.25-.664 1.19.19.856.398.86-.27.507.6-1.48.45 1.297.51 1.73.42.79.85 1.122.695 1.2.056-.16.832-1.31.36 1.48.553 1.48.58 1.387.773 1.4.563 1.614.805 1.196.717 1.74-.19 1.41.67.79.9-.64.533.195.852-1.704-.426-1.11-1-.953.486-.34.57.818 1 .31 1.116.688-.89 1.79-.12 1.778.22.037-.636 1.525-.08 1.436.51.06.726.43.962 1.528.636 1.46.992 1.593.858.98-.47 1.21-.467.53 1.21.043.845-.21.92.223.85 1.34.528.855-.705-.48-.803 1.58.11.8 1.374-.71.976-.19 1.097-1.625-.166-1.367-.13-1.638-.14-.874.91-.433.78-1.41.43.722-.822-.01-.08-.022-1.04.307-.95-.203-.915-.312-.994-.1-1.06-1.02-1.17-1.49-1.076-1.48-.64-1.57.02-1.115.33-.486.865-.217.92-.516.912-.58.897-.25 1.042.083 1.177.314 1.26-1.124-.05-.183.85.894.774.17 1.103-.77 1.018-.095-1.083-1.574-1.102-.52.81-.53.875-.18 1.085 2.29 1-1.416.06 1.44 1.006-2.107-.32.79.79 1.287.663-.71.68 1.06 1.01 1.623.993.78 1.32.033.09.096 1.06.11.1 1.75 1.063.63 1.152 1.212.293.253-.49 1.22 1.176-1.17-.21.91.865-1.785-.7 1.19 1.12.88 1.126.898-.32.577 1.497 1.45 1.21-1.156-1.453-.27-1.087-.3-1.24 1.783 1.67 1.44.76 1.46 1.324 1.453 1.005 1.415.834 1.436.96 1.705 1.07 1.06 1.374 1.95 1.544 1.324 1.25 1.336 1.28-.94.33 1.342 1.115 1.01 1.104.045 1.335 1.24 1.483.92 1.348.9 1.505 1.19.14.956 1.097 1.435.506 1.397.62 1.494.056.997 1.03 1.128.356-.03-1.16.915 1.257 1.323.87.933-.14 1.05-.73.49-1.05-.606-1.592-.958-1.25-1.215-1.723.087-.69-1.023-.97.882-.3 1.915.554 1.663.293.102.035 1.798.4 1.636.304 1.384-.212 1.024.896 1.356.17 1.036.53.045-1.023.02-.89-1.034-.385-1.314-1.39v-1l-.013-.883-1.857-1.446-1.866-1.065-1.36-.83-1.613-.68-1.076-.667-1.166-1.498-.894-1.353-.485.256-.883-1.104-.854-.64-1.09-.072-1.02.484-1.04.476-1.392-.402-1.686-.797-1.684-.7-.87-.696-1.752-1.38-1.2-1.255-.94-1.05-.98-1.24-1.213-.706-1.25-1.072-.733.545-1.223-.86-.846-.124-.69-.785-1.217-.73.116-.76-.155-.72-.44-.785.9-.68 1.705.342.76.863 1.856 1.054 1.595 1.293 1.882 1.415 1.594 1.4 1.77.986 1.66.397 1.58-.023 1.73.95 1.09.35.663-.725.7-.405.31-1.053-.53-1.3-.854-1.36-.876-1.355-.87-1.33-.48-1.5.988-.65-.576-.934 1.136-.235-.055 1.18 1.436 1.372.98.754.458 1.46-.172 1.072.584 1.31.526 1.195 1.01 1.17 1.354.435 1.275.097.073-.724 1.593.527 1.587.54.95 1-.073.75-.98.09-.663.43.475 1.177 1.673 1.09 1.12.89 1.834.728 1.55.517 1.63 1.152 2.28 2.45.612 1.018.092.905-.13-.004-1.377-.18.343 1.402.595 1.544 1.056 1.55.27 1.43.76 1.727-.265.66-.555.638-.47-.92-1.073-.018.75 1.047.215 1.195.446.93.705 1.22-.092.92-.986-.848-.94 1.004-.77-.44-.89.458-1.496-1.38-1.49-1.49-.424-1.274-1.04-.542-.096.865-1.044-.55-1.3-1.06-1.056-.533.14 1.09.976 1.146.126 1.244.692 1.042 1.003.826 1.57.883 1.335.61.907-.31 1.55.898 1.1.08.44.82.856-.064.66 1.12.99.73-.65.478-.195 1.06.658 1-.306 1.458.3 1.258 1.263.83.397-.515.75.49.58 1.184-.667.337-1.49-1 .134.705 1.15 1.104.894 1.097.83 1.22.775 1.38.216 1.31.387 1.646.178 1.33.854 1.002 1.15 1.053.207 1.066.5 5.17-1.346-.56-.415.99 1.63.6 1.735 1.114-.42.987-.288 1.338-1.152-.232-.31 1.318.056 1.257-.276 1.17 1.41 1.106.806-.294.416-.855 1.14-.386.742-.962.582.11 1.194.08.608.747.853.16 1.03-.29 1.3.565 1.45 1.55 1.437 1.576 1.017 1.176 1.343 1.748.063.08.364 1.007-.177 1.166-.705.852-.915 1.34-.334 1.987-1.037.78-.92 1.164-.557 1.578-.688 1.214-1.402.687.656 1.717-.464 1.275.31 1.13 1.846.82.895 1.294.858.755 1.35 1.048.86 1.325.943 1.67 1.185 1.78.363 1.57.99 1.542 1.025.44.495-.79.98 1.55 1.067 1.397.68 1.51.53-1.41.784-.74.117-1.28.484-.834 1.1-.31.72.35 1.416.704.908-.554-.36-2.164.15-1.48.415-1.396.575-1.21.55-1.19.53-1.193-.61-1.802-.68-2.33-.077-.15-5.89-12.954v-.11l-.07-1.294-.01-1.53-.474-1.98-.326-1.583-1.5-1.194-1.31-1.023-.31-1.704-.417-1.388.737-.724.533-1.11.904-.557.05-1.33-.715-1.553-.43-1.69-.217-1.47-.81-1.217-.293-1.153.355-.782.54-.274.355-.95 1.33.88 1.15.398 1.166-.117.89.56.094-.993 1.126-.135 1.12.038.69-.483.055-1.335.856-.17.64-.343.23-.485 1.013.324.406-1.03.803.51 1.004.343 1.007.697.608 1.044.975 1.194.59.527-.01-.7-.017-.067-.586-.814-.616-1.22-.975-.847-.448-1.393-1.01-.85-.563.532-1.233-1.36-.838-1.18.37-.502.135-.863.797.468.166-.503-.86-1.02-.93.22-.556.526-.57.525-.582.7-.398.673-.846-1.16.026 1.667-.637.663-.658.49-.65-.006-1.097-.666-1.11-.35-.69.472-.705.294-.92.144-.894-.516-.89-.99-.703-.02-.883-.83.05-.77-.627-1.434.258-.786.67.783.925.517.69.006-.44-.958-.89-.81.907-.618 1.126.63h.665l.88.64.65-.646.643-.012.174-.98 1.023-.67 1.01-.37.554-.68.75-.377.53-.533 1.074.95 1.465 1.28 1.237.962.517-.387.932.13.73.115 1.095.258.873-.05-.07-1.417-.465-1.73.63-.084-.068-1.074.56-.41-1.363-1.105.11-.9-.195.544-.723-.42-.215.54-.438.245-.717-.284-.658.094-.882-.09-1.445-1.225.806-.27-.21-1.02-.684-.794-.5.06-.22-1.01-.73-.94-.016-.85-.438-1-.077-1.004.623-.095-.48-1.14 1.03 1.393.6.43.08.054 1.4 1.3-.673-1.833.69.76 1.316.853.474.09.36.673-.376.257.81.756.09-.728.11-.59.83.79.296-.43.958 1.29-.33-1.056-.337-1.05.676.81-.41-1.22.433-.662-.035-.763-1.148-2.01-1.04-1.07-.31-1.064-.11-1.126.485.04-.1-.75-.76-1.16-.4-.843-1.2-1.57-1.136-1.397-.16-.957-.35-.667-1.264-1.55.44.232 1.09 1.207.502.19.877.88 1.38 1.105.922.667 1.216 1.398 1.428 1.52 1.25 1.398 1.158 1.25 1.13 1.238 1.31 1.644.977 1.323.945 1.81.737 1.42-.137.277.77.974.105.626-.722-.823.46 1.3.674 1.46.974 1.77.898 1.605.57 1.3-.024.802.437 1.324.03.786-.045.582.23 1.17.205 1.14.498 1.48-.687-.3.317 1.33-.023.98.094 1.122-.786-.645-.09.95.102 1.333.374 1.48.54 1.665 1.01 2.217.035.074 2.905 3.514.07.04.578 1.34.43 1.325-.035.98-.562.395-.534.81-.233 1.526-.116 1.177-.473.58-.103.027-.385-.02-1.01-1.14-.343.932-.527.747-.203 1.15-.243 1.513-.092 1.49-.436.735-.64.74-.91-.63.084 1.15-.465.537-.91-.814-.45-1.318-.606-1.7-.86-1.525-.917-.775-.456.35-1.335-.987-.306-1.105-.9-1.49.412 2.01-1.2-.61-.323.89.037 1.25.435 1.46.03 1.28-.673 1.2.21 1.3-.72 1.19.363 1.495-.067 1.262-.533.31-.516 1.013-.342 1.244-.04 1.09-.31 1.05.027 1.45-.255 1.644-.367 1.78.013.073.024 6.07.02.102.468 1.295-.067 2.07-.276 1.286-1.073.552-.238 1.09-.664 1.373-.264 1.09-1.392.488-.953-.387-.38 1.24.753 1.895.682 1.49.54 1.655.537 1.686-.05 2.147-.387 1.68-.14 1.745.373 1.875.066 1.816.62.943.435 1.73.007 1.41 1.482 2.402.94.455.66 2.21.24 1.944.1 2.067-.446 1.99.187 1.935-.61 2.158-1.04 1.82.135 1.943.49 1.846.09 1.517-.445 1.8-.05 1.273.454 1.84.306 1.625.38 2.272-.16 2.157-.02 1.96.084 1.77.404 2.557.067 1.8-.31 1.46.437 1.704.438 1.69 1.17.097 1.247.385.05.066.507 1.436-.26 1.71 1.16.785.84 1.13.507 1.497.35 1.67.166 1.87.14 1.863.61 1.997-.276 1.95-.13 1.803-.61 1.668 1.022-.182.89.927.6 1.53.213 1.657.42 1.73.985-.21.96-.19.736-1.22.598 1.77.9-.464.87.437.712.637.913-.253.996.23.818.404.404 1.243.366.986.48.815 1.1.235.972-.48.95-.49.864.14 1.226-.66.973.183.76-.08.874-.308 1.017-.28.79-.77.62-.796.634-2.158.798-1.724.46-1.938.765-1.704.723-1.71.51-1.28.62-1.27.957-1.44.607-1.055.734-.796.38-1.77.45-1.65.03-.106 1.75-6.955.065-.25.1-1.58.44-1.95.384-1.55.41-1.314.423-1.76.436-1.526.424-.844.494-.204.41 1.165.327 1.38.45-.645.288-1.325.252-1.55.23-1.577.238-1.33.165-1.336.17-1.098.18 1.113.177-.877.198.464.21.22.05 2.022.06 1.78-.02 1.59-.055 1.81.136-.453-.07 1.804.003 1.348.01.504-.045 1.053-.22 2.233.067.674.012.89.065.236.118-.956c.57-6.423.86-12.925.86-19.494 0-120.397-97.602-218-218.003-218-27.936 0-54.502 5.215-79.05 14.79m210.068 119.29l.645-.614-.43-1.74 1.104-.97-1.012-1.25.252-1.307 1.023-.82-.248-1.663-.083-.14-1.22-5.876-.05-.15-.407-1.476-1.09-1.3-1.11-.306-.815.554h-.12l-6.08-.247-.11-.02-1.35-.397-1.603-.834-1.195-.24-.938.6-.437.945-.424-1.263-.73-1.3-1.066-1.38-.863-1.044-1.1-.594-.5 1.145-.424.915-.22 1.22-1.056-1.376-.49-1.827-.878-.31-.334 1.386-.616 1.22 1.054 1.366.7 1.3.93.853-.846.31.22.82h1.066l.49-.91 1.185 1.714 1.013.778-.074-1.195 1.186 1.068.46 1.704.45-.836.97.76-.83-1.656 1.27.165 1.405 1.92 1.245.3.05-1.49.022-1.482 1.01 1.436 1.255.137.343-.754 1.005 1.446 1.228.95-.184 1.073-.915 1.214.85.325.684 1.292.453-.908 1.43 1.17.092 1.176.236 1.52.84.33.275-1.263.646-.582 1.083-.208-.226-1.63.92 1.477-.372.803-.44.924.84 1.68.5 1.6.447 1.768z"/><path stroke-width=".204" stroke="#FFF" fill="#FFF" d="M525.5 199.834l.117-1.097.324.24.31.863.09-1.306v-1.312l.438 1.76.136 1.758.196 1.735h-.227l-.288-.638-.244.208-.39-.662-.33-.214-.117-1.34zm-279.374-67.068l1.637 1.11 1.943.943.43 1.48-1.705-.1-1.22-.14-2.03 1.18 1.63 1.26 1.02-.79 1.848-.228-.65 1.104-1.796 1.01 3.21-.2.344-1.81 1.41 1.65 1.36-.926 1.27-.68-1.777-.79-1.317-1.338 1.42-.13 1.5-.09-.752-1.25-2.22-.087-1.812-.578-1.715-.36-2.02-.252zm-2.557 21.026l.63 1.913 1.06.638 1.54.165.55.668.93-.9 1.54.134 1.402.08 1.62-1.263 1.685-.178 1.747.5-.007-1.04 1.688.82-1.135-1.22-1.062-.535-1.49-.098-.987.54-1.395.692-1.098-.266-.693-1.114.066-1.05-1.57-.917-.21.97.065 1.52-1.207-.37-.83.956-1.237.35-1.61-1.01zm3.31 12.787l1.31 1.04 1.17-.848 1.51.062 1.623.77 1.667.056-.65-1-.94-.435-.49-1.27-.79-.384-1.58.98-1.275.42-1.555.6zm10.15 14.16l2.064-.248.613-1.46.613-1.46 1.44-.482-.18-2.055-1.37 1.176-1.09.92-.02 1.68-.95.976-1.12.95zm3.43 13.194l.272 1.404-.087 1.956.766 1.234-.386 1.19 1.624.485-.375 1.87 1.274-.27-.65 1.435-.645 1.48-.463 1.53 1.495-.25 1.28-2.292-.466-1.74-.26-2.404.03-1.968-.12-2.01.065-1.958-1.127-.653-1.195-.37-1.04 1.336zm-4.29-.43l.032 2.024 1.182-.6.55 1.182-.846.716-.64 1.79.927 1.304.944 1.94-.404 1.227.338 1.422-.57 1.132 1.77.227-.073-1.69-.433-1.13-.15-1.36.85-1.41-.986-.626-1.28.263.397-2.223.84-.725.418-1.185-.977-1.64-1.893-.65zM270 222.662l1.25.27 1.85-.596.737 1.78 2.08-.57 2.065-.596 2.163-1.25 1.256.204-1.905.997-.21 1.24 1.75-.015.827 1.71 1.698.257 2.293-.642 2.17-.024-.116.95 1.285.153-.447-1.665.395-1.526-.717-1.05.167-1.28-1.883-.246-.87-1.384-.54-2-2.04-.308-1.675-1.232-1.05 1.104-1.785.655-1.072 1.12-1.194.75-1.77.274-1.504 1.025-1.7.93-1.512.962zm9.017 9.813l2.182-.963-.9 1.477-.408 1.21-.797 2.15-.7 1.462v1.62l-.33 2.18.64 2.03 1.165.176 1.227-.436.866-1.176.767-2.12.03-1.92-.24-1.65.215-1.545.884-1.49.666-1.522 2.108-.674 1.11-1.785 1.314.16 1.03.77 1.25.79.533 1.317-.23 2.2-1.544 1.747-.14 1.29 1.25-1.17 1.417-.472.5 1.96.515 1.962 1.93-.786.18-2.24.832-1.84.583-1.52-.356-1.33 1.435 1.716 2.2 1.103.97-1.205-1.203-2.324-1.196-1.99-2.373-.79-1.697-.497-1.754-.167-1.72-.485-1.3-.14.3 1.3-2.17-.258-1.06-.44-1.344.135-2.69.278-.65-.1-1.05 1.11-1.14 1.44-1.12 1.443zm10.906 12.327l1.802 1.14 1.635.155 1.666-.16 1.74-.815 1.68-.53 1.944-.833 1.675-.86 1.24-1.198-1.87-.098-1.865-.11-.982.89-1.146-.425-1.645.216-1.027 1.178-1.957.784-1.627-.16-1.27.82zm10.905-4.83l1.368.386 1.886-.52 1.6.066 1.6.358 1.645-.264 1.84-.612-.197-1.904.484-1.252-1.618.584-.927.932-1.83-.357-1.38.25-1.827.27-1.65.52-.998 1.544zm195.18-125.17l-.403-.244-.376-.24-.31-.08.57 1.115-1.03-1.33-1.057-1.337-.87-.95 1.387 1.832 1.294 1.697.69.802.567.894-.096.298-.23.072-.39-.268-.32-.085-.633-.41-.586-.43.56.882.49.24.65.62.475.26.36.06.227-.067.587.608.295.12.574.64.428.256.477.467.48.45.35.29.44.46.086-.08.7 1.06.374.51.39.47-.094-.26-.185-.422-.22-.43.765 1.24.098.128.418.71-6.92-9.55zm-24.89-10.02l.793-.148.916.35.51-.44-.015-.903-.257-1.15-.724-1.45-.23-.994-1.006-1.355-1.02-1.343-1.03-1.33-.993-1.526-.33-.985-.625-1.27-.667-1.057.465-.164-.674-1.258.644-.043-.443-.797.046-.596-.642-.9-.19-.72-.847-1.19-.86-1.18-.53-.985-.89-1.165-1.49-1.49-1.2-1.21-.864-.557-.436.057-.76-.19-.087.245.22.897-.006.593-.216.287-.42.406-.064.587.32.78-.042.392.012.544-.57.05.33.58.778 1.14.283.79 1.1 1.21.66 1 .925.92.87 1.135-.343.27-1.208-.84-.156.374.07.84-1.42-1.28-1.008-1.41-.167.71.924 1.27-.07 1.01-1.063-.865.5 1.164.427 1.053 1.27.995 1.186 1.2.827 1.294 1.25.533 1.006.804.745 1.16 1.1 1.114 1.056.604 1.336.925.604 1.246 1.317.93 1.083 1.33zm-13.9-17.67l.144-.373.62-.035-.032-.68-.98-1.232-.576-1.036-.436-1.056-1.68-1.305-1.58-1.33-.085.38-.387.15-.51-.85-1.44-1.33-.82-1.056-.08.38.81 1.053 1.078 1.507 1.59 1.644.925 1.378 1.255 1.435 1.265 1.14.926 1.215zM445.943 67.48l.754.308-.21-.515.62-.085.735.312.926.41.47-.183.25-.282-.126-.447.34-.135.6.147.05-.405-.64-.803 1.012.932 1.214.913 1.288.84.79.51.692.728 1.043.545.835.43.833.465-.548-.692-.985-1.067.19.02-.578-.773-.744-.803-1.85-1.655-1.71-1.47-1.265-1.166-.76-.52-.714-.32-1.22-.72-1.547-1.01.607.59-.48-.16-.95-.547 1.35 1.21-.494-.195-1.42-.89-.72-.776-1.215-1.067-1.697-1.214.13.356.07.343-.365.03 1.336 1.12 1.24.82.69.26-.425.07-.69-.24-1.426-.9-.22.05 1.135 1.05.116.498-.79-.18-.39.24.57.77-.668-.33-1.06-1.05-.633-.71-.684-.006-1.643-1.14-1.403-1.195-.414-.696-1.15-.93-.98-.858.03.32-.74-.152-.807-.092-.08.47.194.643.784.73 1.023.97.58.68 2.084 1.41 1.178 1.073 1.247 1.02.453.065.92.834 1.114.655.595.92 1.304.74 1.62.96 1.43.91zM426.58 49.883l.975.312.19-.067 1.116.38-1.27-.944-1.29-.932.008-.116-1.625-1.03-2.06-1.085-.925-.28-.97-.6-1.11-.56.03.265.17.44-.47-.115-1.43-.625-1.273-.576 1.747.97.14.242 1.583.95.644.16.3.355 1.264.54.925.67.786.498.978.35 1.58.81zM317.37 16.878l-2.177-.13-1.784.068-1.58.086-.75.24-1.72.195-1.9.14-1.098.216-1.423.343-.833.33-.055.313-.228.39-.41.37.942.063.47-.208.1-.228.65-.313.643-.3.66-.275 1.27-.29 1.27-.264.93-.197 1.14-.15.94-.17.974-.16 1.77-.036 2.18-.047zm98.6 62.398l.778-.503 1.164-.147 1.22.08-.226-.54-.926-.497-.418-.96-1.23-.63-1.043-.2-.9.212-.15.73-.59.354.34.83 1.082.88.89.38zm-4.574-5.928l.588-.282.117-.73 1.29.197-.33-.613-.78-.582-1.053-.147-.502.4-.876.16-1.374-.262-.435.57-.067.803.608-.276-.05-.552 1.04.14.406.78 1.43.406z"/></g></switch></svg>